<svg width="50" height="10" xmlns="http://www.w3.org/2000/svg">

 <g>
  <title>Layer 1</title>
  <rect stroke="null" id="svg_1" x="59.09188" y="-8.54026" fill="white" height="26.58601" width="8.02935"/>
  <path stroke="null" id="svg_2" fill="black" d="m4.166,4.5591l-4.02474,0l0,0.68764l4.02474,0l0,-0.68764z"/>
  <path stroke="null" id="svg_3" fill="black" d="m13.30207,4.5591l-4.02474,0l0,0.68764l4.02474,0l0,-0.68764z"/>
  <path stroke="null" id="svg_4" fill="black" d="m22.43814,4.5591l-4.02474,0l0,0.68764l4.02474,0l0,-0.68764z"/>
  <path stroke="null" id="svg_5" fill="black" d="m31.57421,4.5591l-4.02474,0l0,0.68764l4.02474,0l0,-0.68764z"/>
  <path stroke="null" id="svg_6" fill="black" d="m40.71028,4.5591l-4.02474,0l0,0.68764l4.02474,0l0,-0.68764z"/>
  <path stroke="null" id="svg_7" fill="black" d="m49.84635,4.5591l-4.02474,0l0,0.68764l4.02474,0l0,-0.68764z"/>
 </g>
</svg>