<svg width="50" height="10" xmlns="http://www.w3.org/2000/svg">

 <g>
  <title>Layer 1</title>
  <rect stroke="null" x="63.9796" y="-12.39572" id="svg_1" fill="white" height="34.61375" width="3.59654"/>
  <path stroke="null" id="svg_2" fill="black" d="m1.51311,5.81747l0,-1.35583l-1.46669,0l0,1.35583l1.46669,0z"/>
  <path stroke="null" id="svg_3" fill="black" d="m8.85849,4.65903l-4.01264,0l0,0.89528l4.01264,0l0,-0.89528z"/>
  <path stroke="null" id="svg_4" fill="black" d="m13.65791,5.81747l0,-1.35583l-1.46669,0l0,1.35583l1.46669,0z"/>
  <path stroke="null" id="svg_5" fill="black" d="m21.00328,4.65903l-4.01264,0l0,0.89528l4.01264,0l0,-0.89528z"/>
  <path stroke="null" id="svg_6" fill="black" d="m25.8027,5.81747l0,-1.35583l-1.46669,0l0,1.35583l1.46669,0z"/>
  <path stroke="null" id="svg_7" fill="black" d="m33.14808,4.65903l-4.01264,0l0,0.89528l4.01264,0l0,-0.89528z"/>
  <path stroke="null" id="svg_8" fill="black" d="m37.9475,5.81747l0,-1.35583l-1.46669,0l0,1.35583l1.46669,0z"/>
  <path stroke="null" id="svg_9" fill="black" d="m45.29287,4.65903l-4.01264,0l0,0.89528l4.01264,0l0,-0.89528z"/>
  <path stroke="null" id="svg_10" fill="black" d="m50.09229,5.81747l0,-1.35583l-1.46669,0l0,1.35583l1.46669,0z"/>
 </g>
</svg>