<svg width="50" height="10.000000000000002" xmlns="http://www.w3.org/2000/svg">

 <g>
  <title>Layer 1</title>
  <rect stroke="null" x="4.52173" y="60.52163" id="svg_1" fill="white" height="7.34787" width="69.47829"/>
  <g stroke="null" id="svg_35">
   <path stroke="null" id="svg_2" fill="black" d="m18.7246,19.4688l0,-1.4493l-1.4492,0l0,1.4493l1.4492,0z"/>
   <path stroke="null" id="svg_3" fill="black" d="m23.7246,19.4688l0,-1.4493l-1.4492,0l0,1.4493l1.4492,0z"/>
   <path stroke="null" id="svg_4" fill="black" d="m28.7246,19.4688l0,-1.4493l-1.4492,0l0,1.4493l1.4492,0z"/>
   <path stroke="null" id="svg_5" fill="black" d="m33.7246,19.4688l0,-1.4493l-1.4492,0l0,1.4493l1.4492,0z"/>
   <path stroke="null" id="svg_6" fill="black" d="m38.7246,19.4688l0,-1.4493l-1.4492,0l0,1.4493l1.4492,0z"/>
   <path stroke="null" id="svg_7" fill="black" d="m43.7246,19.4688l0,-1.4493l-1.4492,0l0,1.4493l1.4492,0z"/>
   <path stroke="null" id="svg_8" fill="black" d="m48.7246,19.4688l0,-1.4493l-1.4492,0l0,1.4493l1.4492,0z"/>
   <path stroke="null" id="svg_9" fill="black" d="m53.7246,19.4688l0,-1.4493l-1.4492,0l0,1.4493l1.4492,0z"/>
   <path stroke="null" id="svg_10" fill="black" d="m58.7246,19.4688l0,-1.4493l-1.4492,0l0,1.4493l1.4492,0z"/>
   <path stroke="null" id="svg_11" fill="black" d="m63.7246,19.4688l0,-1.4493l-1.4492,0l0,1.4493l1.4492,0z"/>
   <path stroke="null" id="svg_12" fill="black" d="m68.7246,19.4688l0,-1.4493l-1.4492,0l0,1.4493l1.4492,0z"/>
   <path stroke="null" id="svg_24" fill="black" d="m18.7246,19.4688l0,-1.4493l-1.4492,0l0,1.4493l1.4492,0z"/>
   <path stroke="null" id="svg_25" fill="black" d="m23.7246,19.4688l0,-1.4493l-1.4492,0l0,1.4493l1.4492,0z"/>
   <path stroke="null" id="svg_26" fill="black" d="m28.7246,19.4688l0,-1.4493l-1.4492,0l0,1.4493l1.4492,0z"/>
   <path stroke="null" id="svg_27" fill="black" d="m33.7246,19.4688l0,-1.4493l-1.4492,0l0,1.4493l1.4492,0z"/>
   <path stroke="null" id="svg_28" fill="black" d="m38.7246,19.4688l0,-1.4493l-1.4492,0l0,1.4493l1.4492,0z"/>
   <path stroke="null" id="svg_29" fill="black" d="m43.7246,19.4688l0,-1.4493l-1.4492,0l0,1.4493l1.4492,0z"/>
   <path stroke="null" id="svg_30" fill="black" d="m48.7246,19.4688l0,-1.4493l-1.4492,0l0,1.4493l1.4492,0z"/>
   <path stroke="null" id="svg_31" fill="black" d="m53.7246,19.4688l0,-1.4493l-1.4492,0l0,1.4493l1.4492,0z"/>
   <path stroke="null" id="svg_32" fill="black" d="m58.7246,19.4688l0,-1.4493l-1.4492,0l0,1.4493l1.4492,0z"/>
   <path stroke="null" id="svg_33" fill="black" d="m63.7246,19.4688l0,-1.4493l-1.4492,0l0,1.4493l1.4492,0z"/>
   <path stroke="null" id="svg_34" fill="black" d="m68.7246,19.4688l0,-1.4493l-1.4492,0l0,1.4493l1.4492,0z"/>
  </g>
  <g stroke="null" id="svg_58">
   <path stroke="null" id="svg_36" fill="black" d="m18.7246,19.4688l0,-1.4493l-1.4492,0l0,1.4493l1.4492,0z"/>
   <path stroke="null" id="svg_37" fill="black" d="m23.7246,19.4688l0,-1.4493l-1.4492,0l0,1.4493l1.4492,0z"/>
   <path stroke="null" id="svg_38" fill="black" d="m28.7246,19.4688l0,-1.4493l-1.4492,0l0,1.4493l1.4492,0z"/>
   <path stroke="null" id="svg_39" fill="black" d="m33.7246,19.4688l0,-1.4493l-1.4492,0l0,1.4493l1.4492,0z"/>
   <path stroke="null" id="svg_40" fill="black" d="m38.7246,19.4688l0,-1.4493l-1.4492,0l0,1.4493l1.4492,0z"/>
   <path stroke="null" id="svg_41" fill="black" d="m43.7246,19.4688l0,-1.4493l-1.4492,0l0,1.4493l1.4492,0z"/>
   <path stroke="null" id="svg_42" fill="black" d="m48.7246,19.4688l0,-1.4493l-1.4492,0l0,1.4493l1.4492,0z"/>
   <path stroke="null" id="svg_43" fill="black" d="m53.7246,19.4688l0,-1.4493l-1.4492,0l0,1.4493l1.4492,0z"/>
   <path stroke="null" id="svg_44" fill="black" d="m58.7246,19.4688l0,-1.4493l-1.4492,0l0,1.4493l1.4492,0z"/>
   <path stroke="null" id="svg_45" fill="black" d="m63.7246,19.4688l0,-1.4493l-1.4492,0l0,1.4493l1.4492,0z"/>
   <path stroke="null" id="svg_46" fill="black" d="m68.7246,19.4688l0,-1.4493l-1.4492,0l0,1.4493l1.4492,0z"/>
   <path stroke="null" id="svg_47" fill="black" d="m18.7246,19.4688l0,-1.4493l-1.4492,0l0,1.4493l1.4492,0z"/>
   <path stroke="null" id="svg_48" fill="black" d="m23.7246,19.4688l0,-1.4493l-1.4492,0l0,1.4493l1.4492,0z"/>
   <path stroke="null" id="svg_49" fill="black" d="m28.7246,19.4688l0,-1.4493l-1.4492,0l0,1.4493l1.4492,0z"/>
   <path stroke="null" id="svg_50" fill="black" d="m33.7246,19.4688l0,-1.4493l-1.4492,0l0,1.4493l1.4492,0z"/>
   <path stroke="null" id="svg_51" fill="black" d="m38.7246,19.4688l0,-1.4493l-1.4492,0l0,1.4493l1.4492,0z"/>
   <path stroke="null" id="svg_52" fill="black" d="m43.7246,19.4688l0,-1.4493l-1.4492,0l0,1.4493l1.4492,0z"/>
   <path stroke="null" id="svg_53" fill="black" d="m48.7246,19.4688l0,-1.4493l-1.4492,0l0,1.4493l1.4492,0z"/>
   <path stroke="null" id="svg_54" fill="black" d="m53.7246,19.4688l0,-1.4493l-1.4492,0l0,1.4493l1.4492,0z"/>
   <path stroke="null" id="svg_55" fill="black" d="m58.7246,19.4688l0,-1.4493l-1.4492,0l0,1.4493l1.4492,0z"/>
   <path stroke="null" id="svg_56" fill="black" d="m63.7246,19.4688l0,-1.4493l-1.4492,0l0,1.4493l1.4492,0z"/>
   <path stroke="null" id="svg_57" fill="black" d="m68.7246,19.4688l0,-1.4493l-1.4492,0l0,1.4493l1.4492,0z"/>
  </g>
  <g stroke="null" id="svg_81">
   <path stroke="null" id="svg_59" fill="black" d="m18.7246,19.4688l0,-1.4493l-1.4492,0l0,1.4493l1.4492,0z"/>
   <path stroke="null" id="svg_60" fill="black" d="m23.7246,19.4688l0,-1.4493l-1.4492,0l0,1.4493l1.4492,0z"/>
   <path stroke="null" id="svg_61" fill="black" d="m28.7246,19.4688l0,-1.4493l-1.4492,0l0,1.4493l1.4492,0z"/>
   <path stroke="null" id="svg_62" fill="black" d="m33.7246,19.4688l0,-1.4493l-1.4492,0l0,1.4493l1.4492,0z"/>
   <path stroke="null" id="svg_63" fill="black" d="m38.7246,19.4688l0,-1.4493l-1.4492,0l0,1.4493l1.4492,0z"/>
   <path stroke="null" id="svg_64" fill="black" d="m43.7246,19.4688l0,-1.4493l-1.4492,0l0,1.4493l1.4492,0z"/>
   <path stroke="null" id="svg_65" fill="black" d="m48.7246,19.4688l0,-1.4493l-1.4492,0l0,1.4493l1.4492,0z"/>
   <path stroke="null" id="svg_66" fill="black" d="m53.7246,19.4688l0,-1.4493l-1.4492,0l0,1.4493l1.4492,0z"/>
   <path stroke="null" id="svg_67" fill="black" d="m58.7246,19.4688l0,-1.4493l-1.4492,0l0,1.4493l1.4492,0z"/>
   <path stroke="null" id="svg_68" fill="black" d="m63.7246,19.4688l0,-1.4493l-1.4492,0l0,1.4493l1.4492,0z"/>
   <path stroke="null" id="svg_69" fill="black" d="m68.7246,19.4688l0,-1.4493l-1.4492,0l0,1.4493l1.4492,0z"/>
   <path stroke="null" id="svg_70" fill="black" d="m18.7246,19.4688l0,-1.4493l-1.4492,0l0,1.4493l1.4492,0z"/>
   <path stroke="null" id="svg_71" fill="black" d="m23.7246,19.4688l0,-1.4493l-1.4492,0l0,1.4493l1.4492,0z"/>
   <path stroke="null" id="svg_72" fill="black" d="m28.7246,19.4688l0,-1.4493l-1.4492,0l0,1.4493l1.4492,0z"/>
   <path stroke="null" id="svg_73" fill="black" d="m33.7246,19.4688l0,-1.4493l-1.4492,0l0,1.4493l1.4492,0z"/>
   <path stroke="null" id="svg_74" fill="black" d="m38.7246,19.4688l0,-1.4493l-1.4492,0l0,1.4493l1.4492,0z"/>
   <path stroke="null" id="svg_75" fill="black" d="m43.7246,19.4688l0,-1.4493l-1.4492,0l0,1.4493l1.4492,0z"/>
   <path stroke="null" id="svg_76" fill="black" d="m48.7246,19.4688l0,-1.4493l-1.4492,0l0,1.4493l1.4492,0z"/>
   <path stroke="null" id="svg_77" fill="black" d="m53.7246,19.4688l0,-1.4493l-1.4492,0l0,1.4493l1.4492,0z"/>
   <path stroke="null" id="svg_78" fill="black" d="m58.7246,19.4688l0,-1.4493l-1.4492,0l0,1.4493l1.4492,0z"/>
   <path stroke="null" id="svg_79" fill="black" d="m63.7246,19.4688l0,-1.4493l-1.4492,0l0,1.4493l1.4492,0z"/>
   <path stroke="null" id="svg_80" fill="black" d="m68.7246,19.4688l0,-1.4493l-1.4492,0l0,1.4493l1.4492,0z"/>
  </g>
  <g stroke="null" id="svg_104">
   <path stroke="null" id="svg_82" fill="black" d="m1.44986,5.68485l0,-1.31677l-1.4044,0l0,1.31677l1.4044,0z"/>
   <path stroke="null" id="svg_83" fill="black" d="m6.29529,5.68485l0,-1.31677l-1.4044,0l0,1.31677l1.4044,0z"/>
   <path stroke="null" id="svg_84" fill="black" d="m11.14073,5.68485l0,-1.31677l-1.4044,0l0,1.31677l1.4044,0z"/>
   <path stroke="null" id="svg_85" fill="black" d="m15.98616,5.68485l0,-1.31677l-1.4044,0l0,1.31677l1.4044,0z"/>
   <path stroke="null" id="svg_86" fill="black" d="m20.8316,5.68485l0,-1.31677l-1.4044,0l0,1.31677l1.4044,0z"/>
   <path stroke="null" id="svg_87" fill="black" d="m25.67703,5.68485l0,-1.31677l-1.4044,0l0,1.31677l1.4044,0z"/>
   <path stroke="null" id="svg_88" fill="black" d="m30.52246,5.68485l0,-1.31677l-1.4044,0l0,1.31677l1.4044,0z"/>
   <path stroke="null" id="svg_89" fill="black" d="m35.3679,5.68485l0,-1.31677l-1.4044,0l0,1.31677l1.4044,0z"/>
   <path stroke="null" id="svg_90" fill="black" d="m40.21333,5.68485l0,-1.31677l-1.4044,0l0,1.31677l1.4044,0z"/>
   <path stroke="null" id="svg_91" fill="black" d="m45.05877,5.68485l0,-1.31677l-1.4044,0l0,1.31677l1.4044,0z"/>
   <path stroke="null" id="svg_92" fill="black" d="m49.9042,5.68485l0,-1.31677l-1.4044,0l0,1.31677l1.4044,0z"/>
   <path stroke="null" id="svg_93" fill="black" d="m1.44986,5.68485l0,-1.31677l-1.4044,0l0,1.31677l1.4044,0z"/>
   <path stroke="null" id="svg_94" fill="black" d="m6.29529,5.68485l0,-1.31677l-1.4044,0l0,1.31677l1.4044,0z"/>
   <path stroke="null" id="svg_95" fill="black" d="m11.14073,5.68485l0,-1.31677l-1.4044,0l0,1.31677l1.4044,0z"/>
   <path stroke="null" id="svg_96" fill="black" d="m15.98616,5.68485l0,-1.31677l-1.4044,0l0,1.31677l1.4044,0z"/>
   <path stroke="null" id="svg_97" fill="black" d="m20.8316,5.68485l0,-1.31677l-1.4044,0l0,1.31677l1.4044,0z"/>
   <path stroke="null" id="svg_98" fill="black" d="m25.67703,5.68485l0,-1.31677l-1.4044,0l0,1.31677l1.4044,0z"/>
   <path stroke="null" id="svg_99" fill="black" d="m30.52246,5.68485l0,-1.31677l-1.4044,0l0,1.31677l1.4044,0z"/>
   <path stroke="null" id="svg_100" fill="black" d="m35.3679,5.68485l0,-1.31677l-1.4044,0l0,1.31677l1.4044,0z"/>
   <path stroke="null" id="svg_101" fill="black" d="m40.21333,5.68485l0,-1.31677l-1.4044,0l0,1.31677l1.4044,0z"/>
   <path stroke="null" id="svg_102" fill="black" d="m45.05877,5.68485l0,-1.31677l-1.4044,0l0,1.31677l1.4044,0z"/>
   <path stroke="null" id="svg_103" fill="black" d="m49.9042,5.68485l0,-1.31677l-1.4044,0l0,1.31677l1.4044,0z"/>
  </g>
 </g>
</svg>